<svg xmlns="http://www.w3.org/2000/svg" viewBox="0 0 1000 1000" style="enable-background:new 0 0 1000 1000" xml:space="preserve">
    <switch>
        <g>
            <path d="M0 46.55v906.91h788.29v-96.1H108.11V142.64h680.18V46.55z"/>
            <path d="M782.28 780.78c160.66 0 217.72-91.59 217.72-169.67 0-87.09-49.55-139.64-147.14-157.66l-102.1-18.02c-33.03-6-69.07-18.02-69.07-57.05 0-46.55 46.55-63.07 91.59-63.07 58.56 0 90.09 19.52 100.6 61.56h108.11c-13.52-96.1-90.09-156.16-207.21-156.16-141.14 0-204.2 81.08-204.2 162.16s48.05 130.63 138.14 147.15l103.6 18.02c37.54 7.51 75.08 21.02 75.08 69.07 0 43.55-39.04 70.57-102.1 70.57-70.57 0-114.12-27.03-123.12-78.08H554.05c13.52 106.62 96.1 171.18 228.23 171.18"/>
        </g>
    </switch>
</svg>
